<svg width="21" height="20" viewBox="0 0 21 20" fill="none" xmlns="http://www.w3.org/2000/svg">
<path d="M15.2834 18.959H5.71671C3.64171 18.959 1.95837 17.2756 1.95837 15.2006V9.59233C1.95837 7.51733 3.64171 5.83398 5.71671 5.83398H15.2834C17.3584 5.83398 19.0417 7.51733 19.0417 9.59233V10.7923C19.0417 11.134 18.7584 11.4173 18.4167 11.4173H16.7334C16.4417 11.4173 16.175 11.5257 15.9834 11.7257L15.975 11.734C15.7417 11.959 15.6334 12.2673 15.6584 12.584C15.7084 13.134 16.2334 13.5756 16.8334 13.5756H18.4167C18.7584 13.5756 19.0417 13.859 19.0417 14.2006V15.1923C19.0417 17.2756 17.3584 18.959 15.2834 18.959ZM5.71671 7.08398C4.33337 7.08398 3.20837 8.20899 3.20837 9.59233V15.2006C3.20837 16.584 4.33337 17.709 5.71671 17.709H15.2834C16.6667 17.709 17.7917 16.584 17.7917 15.2006V14.834H16.8334C15.575 14.834 14.5084 13.9006 14.4084 12.7006C14.3417 12.0173 14.5917 11.3423 15.0917 10.8507C15.525 10.409 16.1084 10.1673 16.7334 10.1673H17.7917V9.59233C17.7917 8.20899 16.6667 7.08398 15.2834 7.08398H5.71671Z" fill="#1B5E37"/>
<path d="M2.58337 10.966C2.24171 10.966 1.95837 10.6827 1.95837 10.341V6.53273C1.95837 5.29107 2.74171 4.16602 3.90004 3.72435L10.5167 1.22435C11.2 0.96602 11.9584 1.05773 12.55 1.47439C13.15 1.89106 13.5 2.56605 13.5 3.29105V6.45771C13.5 6.79938 13.2167 7.08271 12.875 7.08271C12.5334 7.08271 12.25 6.79938 12.25 6.45771V3.29105C12.25 2.97439 12.1 2.68271 11.8334 2.49938C11.5667 2.31604 11.25 2.27437 10.95 2.39104L4.33337 4.89104C3.65837 5.14937 3.20004 5.80773 3.20004 6.53273V10.341C3.20837 10.691 2.92504 10.966 2.58337 10.966Z" fill="#1B5E37"/>
<path d="M16.8333 14.8327C15.575 14.8327 14.5083 13.8993 14.4083 12.6993C14.3416 12.0077 14.5916 11.3327 15.0916 10.841C15.5166 10.4077 16.1 10.166 16.725 10.166H18.4583C19.2833 10.191 19.9166 10.841 19.9166 11.641V13.3577C19.9166 14.1577 19.2833 14.8077 18.4833 14.8327H16.8333ZM18.4416 11.416H16.7333C16.4416 11.416 16.175 11.5243 15.9833 11.7243C15.7416 11.9577 15.625 12.2743 15.6583 12.591C15.7083 13.141 16.2333 13.5827 16.8333 13.5827H18.4666C18.575 13.5827 18.675 13.4827 18.675 13.3577V11.641C18.675 11.516 18.575 11.4243 18.4416 11.416Z" fill="#1B5E37"/>
<path d="M12.1667 10.625H6.33337C5.99171 10.625 5.70837 10.3417 5.70837 10C5.70837 9.65833 5.99171 9.375 6.33337 9.375H12.1667C12.5084 9.375 12.7917 9.65833 12.7917 10C12.7917 10.3417 12.5084 10.625 12.1667 10.625Z" fill="#1B5E37"/>
</svg>
