<svg width="192" height="172" viewBox="0 0 192 172" fill="none" xmlns="http://www.w3.org/2000/svg">
<path d="M159.181 147.087C165.46 153.984 176.072 159.577 176.072 159.577C175.64 157.218 174.778 154.959 173.529 152.911C171.634 150.103 153.618 137.785 153.618 137.785C156.576 138.957 159.595 139.966 162.664 140.808C165.646 141.449 187.153 146.022 187.153 146.022C185.93 145.494 184.769 144.832 183.693 144.048C181.754 142.67 174.789 140.153 165.095 136.675C155.4 133.197 142.305 126.315 142.305 126.315C142.305 126.315 146.824 126.121 150.232 126.114C153.64 126.107 190.218 135.565 190.218 135.565C187.837 134.295 185.37 133.193 182.835 132.266C178.592 130.709 176.869 130.434 172.596 128.877C167.361 126.855 161.959 125.295 156.452 124.215C150.091 123.045 129.606 116.543 128.987 116.357C138.942 125.295 146.094 131.923 146.094 131.923C146.094 131.923 152.872 140.198 159.181 147.087Z" fill="#5DB957"/>
<path d="M64.5567 38.0584C64.5567 38.0584 77.7261 31.8692 88.7404 31.4298C99.7546 30.9904 135.482 28.6667 135.482 28.6667C135.482 28.6667 125.937 27.7208 119.762 28.1975C113.588 28.6741 109.434 27.6612 104.848 27.3037C100.262 26.9462 89.1878 27.3782 84.8403 26.693C80.4927 26.0078 73.386 29.7913 64.3107 31.5713C55.2353 33.3514 41.5066 39.6746 41.5066 39.6746C41.5066 39.6746 37.778 34.6175 39.0532 33.5525C40.3284 32.4874 43.1994 31.1543 49.0906 29.0465C56.628 26.3182 64.3017 23.9815 72.081 22.0456C82.1706 19.4984 125.363 17.6141 125.363 17.6141L98.0246 15.6404C98.0246 15.6404 86.1826 17.9195 80.1273 17.5098C74.0721 17.1002 60.5075 19.1484 50.6417 21.3753C41.4768 23.4458 30.0897 29.7913 28.5386 30.7074C30.1568 31.9661 31.7228 33.1577 33.1993 34.2525C37.992 37.9371 42.5474 41.9197 46.8385 46.1765C49.5399 44.2892 52.4167 42.6656 55.4292 41.328C62.0213 38.2073 64.5567 38.0584 64.5567 38.0584Z" fill="#5DB957"/>
<path d="M157.145 119.91C164.379 120.655 192 120.856 192 120.856C192 120.856 174.61 117.251 171.977 116.849C169.345 116.447 163.864 115.94 153.864 115.635C143.864 115.33 138.092 113.185 131.768 111.121C127.423 109.625 123.21 107.769 119.173 105.573C119.173 105.573 127.1 105.379 131.485 106.057C135.87 106.735 141.03 107.003 157.257 108.82C173.484 110.637 191.374 108.753 191.374 108.753L185.93 106.824C183.208 105.863 181.321 106.467 177.585 106.243C173.849 106.02 165.042 106.087 158.592 104.903C152.141 103.718 148.719 103.726 135.676 102.229C122.633 100.732 109.061 97.9091 109.061 97.9091C112.835 97.6343 116.622 97.5647 120.404 97.7005C125.571 97.9686 125.34 98.2889 130.844 98.7879C136.347 99.2869 140.792 97.1047 150.061 96.3972C159.33 95.6896 187.071 91.5859 187.071 91.5859C187.071 91.5859 181.903 91.3177 179.614 91.139C177.324 90.9603 164.311 91.4444 159.658 92.5168C155.005 93.5893 134.393 94.498 121.671 93.2616C114.52 92.599 107.442 91.2979 100.523 89.3739C100.523 89.3739 108.636 90.2825 112.275 89.9473C115.914 89.6122 123.29 89.5154 132.693 87.929C142.097 86.3426 179.561 80.8908 179.561 80.8908C179.561 80.8908 162.507 80.8908 158.868 81.2483C155.229 81.6058 148.957 81.5015 131.276 84.4806C113.595 87.4598 93.3713 82.3431 93.3713 82.3431C93.3713 82.3431 102.089 81.7324 106.6 81.5388C113.448 81.3549 120.274 80.6803 127.026 79.5204C136.973 77.8372 173.797 71.9236 173.797 71.9236C173.797 71.9236 154.11 71.5438 145.952 72.0651C137.794 72.5865 137.108 73.5547 122.268 76.6232C107.428 79.6917 85.4294 75.7295 85.4294 75.7295C85.4294 75.7295 93.0805 73.8749 95.1983 72.9514C97.3162 72.0279 106.384 70.2106 114.46 69.1381C122.536 68.0656 163.573 60.3274 163.573 60.3274C163.573 60.3274 149.144 60.7742 147.391 60.4987C145.639 60.2231 136.049 60.7072 129.322 61.2434C122.596 61.7797 110.478 65.8387 100.523 67.5145C93.2868 68.6167 85.9947 69.3129 78.6807 69.5999C78.6807 69.5999 80.0081 68.9817 82.3571 67.7305C88.1608 64.7163 94.2013 62.1806 100.418 60.1486C109.307 57.2291 154.513 47.0553 154.513 47.0553C154.513 47.0553 119.3 50.7197 108.278 52.5816C97.2565 54.4436 88.7404 60.1188 82.0737 62.6585C75.407 65.1982 71.7977 64.1481 71.7977 64.1481L63.386 58.1377C65.895 57.7079 68.3503 57.0087 70.709 56.0523C73.1417 54.976 75.4965 53.7317 77.756 52.3284C81.9022 49.9302 86.466 48.3066 90.1498 46.5489C93.8337 44.7912 100.008 44.3145 106.876 42.8846C113.744 41.4546 146.839 38.7063 146.839 38.7063C146.839 38.7063 138.815 38.3563 134.759 37.902C130.702 37.4477 127.384 38.0062 122.864 38.1999C118.345 38.3935 111.067 39.034 102.909 39.5554C94.7509 40.0767 95.3997 40.531 84.2661 43.823C73.1325 47.1149 60.0601 51.8815 55.5858 50.6452C53.0927 49.8969 50.6817 48.8988 48.3896 47.6661C57.0847 56.1044 66.4658 65.6749 79.9335 75.223C92.7375 84.3242 114.028 102.959 128.994 116.387C129.24 116.439 135.877 117.817 142.76 118.89C149.77 119.992 149.889 119.113 157.145 119.91Z" fill="#5DB957"/>
<path d="M0.320659 0L0 0.134061V6.94882L4.04925 4.7964C9.31402 2.00346 12.1701 1.96622 18.0986 0H0.320659Z" fill="#5DB957"/>
<path d="M25.6602 21.5987C27.6885 20.1091 28.3298 20.5858 29.8958 19.7516C31.4618 18.9175 41.1338 15.5883 44.6834 14.702C50.1638 13.4959 55.7016 12.5662 61.2756 11.9165C67.1146 11.2164 114.095 9.55555 114.095 9.55555C114.095 9.55555 94.9075 7.10522 91.7233 6.79241C88.5391 6.4796 80.9328 6.90413 77.756 6.59132C74.5792 6.27851 62.2152 7.21694 60.2391 7.26907C53.3481 7.64751 46.5825 9.26741 40.2688 12.0506C31.0144 16.1618 14.0046 18.1801 14.0046 18.1801L7.1067 12.8028C10.5629 12.5503 13.9983 12.0676 17.3901 11.3579C22.0434 10.2854 48.3076 4.16333 59.1503 1.19165C61.6953 0.579544 64.287 0.18094 66.8984 0L51.0071 0C45.0414 1.15441 38.0316 2.48012 31.1561 3.64198C17.7332 5.87633 4.76514 7.1648 0.246094 7.56699C6.21184 12.6092 17.3007 21.9115 26.8831 29.4189L22.2522 25.0247C23.2196 23.7269 24.3671 22.5733 25.6602 21.5987Z" fill="#5DB957"/>
<path d="M31.8347 122.144C32.0088 123.321 32.39 124.459 32.9607 125.503C32.9607 125.503 32.4685 124.043 31.8347 122.144Z" fill="#5DB957"/>
<path d="M143.178 129.905L129.919 117.869C133.648 123.582 147.384 144.272 152.067 148.852C157.518 154.185 165.833 163.003 165.833 163.003C165.833 163.003 159.77 152.375 155.393 146.856C151.015 141.337 143.178 129.905 143.178 129.905Z" fill="#5DB957"/>
<path d="M135.721 139.676C142.111 153.939 143.968 158.169 147.152 161.893C149.065 164.128 151.218 166.147 153.573 167.911C153.573 167.911 146.094 150.446 141.366 139.274C138.057 131.845 134.217 124.665 129.874 117.787L119.509 108.381C120.896 110.816 129.859 126.546 135.721 139.676Z" fill="#5DB957"/>
<path d="M69.747 77.2339C70.7985 73.793 72.2675 66.6356 72.3868 66.0621L36.8907 35.9059L0 6.62106V12.6612C0.783004 16.8618 1.42432 24.1234 0.469802 35.8314C0.313202 37.7679 0.156601 39.5553 0 41.3279V75.2229C2.53544 82.9836 6.24912 91.9061 6.24912 91.9061C6.24912 91.9061 5.06342 73.078 4.60854 55.2628C4.15365 37.4476 5.0336 12.3038 5.0336 12.3038C5.0336 12.3038 9.91805 10.911 11.0366 39.4064C12.1552 67.9017 9.54519 81.1142 10.0672 85.8659C10.5892 90.6176 13.9226 103.681 13.9226 103.681C13.9226 103.681 13.1321 75.3793 15.7272 58.7856C18.3223 42.1919 13.9897 18.1801 13.9897 18.1801C13.9897 18.1801 23.863 27.5941 21.1187 55.3224C18.3745 83.0506 17.6437 97.0898 18.203 100.404C18.7623 103.718 21.3201 113.81 21.3201 113.81C21.3201 113.81 23.6542 80.4662 25.5259 69.6445C26.9502 61.3998 26.913 48.4555 26.3313 41.3428C29.3142 54.3318 32.7743 71.8789 32.0882 81.6132C30.9249 98.2814 28.5013 109.17 29.0606 112.514C29.8133 115.771 30.7393 118.986 31.8347 122.144C31.2978 119.426 31.0144 114.905 32.2821 107.993C34.6535 95.0937 40.5671 77.9116 38.3299 64.6545C36.0927 51.3974 28.3373 30.8116 28.3373 30.8116L40.224 42.1621C40.224 42.1621 43.095 49.0588 42.3866 65.0865C41.6782 81.1142 38.4268 90.4612 38.218 101.007C38.0092 111.553 39.9332 131.387 39.9332 131.387C39.9332 131.387 40.9474 108.783 42.5432 99.7114C44.139 90.6399 48.2256 79.4384 49.7692 68.3858C51.3128 57.3333 46.3613 46.5265 46.3613 46.5265C46.3613 46.5265 57.9125 61.0721 56.7342 70.9032C55.556 80.7343 53.1324 91.6752 50.5298 104.895C48.8773 113.935 48.0462 123.106 48.0466 132.296C48.0093 133.726 50.9698 141.173 50.4627 139.84C49.9556 138.507 52.3419 110.555 55.3621 101.529C58.3823 92.5019 58.9714 84.1603 60.2987 76.8391C61.6261 69.5179 57.4874 53.453 57.4874 53.453C57.4874 53.453 68.2481 64.9896 67.562 65.9579C66.876 66.9261 66.6896 69.2275 63.0877 94.8331C59.4859 120.439 60.7611 131.581 61.5068 135.997C62.2525 140.414 65.5933 150.081 65.5933 150.081C65.5933 150.081 62.9237 129.227 65.0564 113.244C67.1892 97.2611 68.6508 80.8237 69.747 77.2339Z" fill="#5DB957"/>
<path d="M22.2522 25.0247C22.2522 25.0247 22.3193 25.2556 22.4312 25.6801L22.2522 25.0247Z" fill="#5DB957"/>
<path d="M72.4019 65.9951V66.0398L76.8762 69.8308C75.2281 62.7702 72.4019 65.9951 72.4019 65.9951Z" fill="#5DB957"/>
<path d="M76.8612 69.8307C77.4429 72.3779 77.8754 76.2433 77.9649 82.0973C78.2855 104.195 74.4451 121.884 74.6464 129.801C74.8478 137.718 78.8896 156.613 78.8896 156.613C78.8896 156.613 75.4369 132.78 79.1878 121.347C82.9388 109.915 84.4824 92.055 84.4079 84.6892L84.296 77.3233C84.296 77.3233 91.7532 89.4185 90.575 102.646C89.3967 115.873 84.6092 136.317 85.0716 142.484C85.5339 148.651 91.5146 162.132 91.5146 162.132C91.5146 162.132 90.3811 145.285 91.6861 131.149C92.9911 117.013 94.4974 107.383 94.5347 102.549C94.572 97.7154 92.9836 84.92 92.9836 84.92C92.9836 84.92 97.182 87.8992 98.6884 103.54C100.195 119.18 101.179 130.099 100.135 135.669C99.0911 141.24 99.3893 149.716 100.486 152.941C101.582 156.166 105.892 166.578 105.892 166.578C105.892 166.578 103.006 152.859 104.826 140.056C106.414 128.885 106.138 113.155 105.698 106.124C107.48 113.907 109.591 124.245 110.441 132.869C112.037 149.068 113.67 160.426 115.474 162.66C117.279 164.895 120.463 168.619 120.463 168.619C120.463 168.619 117.525 159.786 116.779 151.936C116.034 144.086 116.123 126.203 114.498 118.242C112.872 110.28 111.052 101.208 111.052 101.208C115.966 111.696 119.729 122.683 122.275 133.979C126.131 151.787 126.929 158.184 129.427 162.876C131.293 166.155 133.527 169.211 136.086 171.985C136.086 171.985 131.306 155.466 130.038 146.305C128.771 137.144 126.541 123.887 125.199 120.982C123.983 118.361 120.165 109.922 119.442 108.321L79.0462 71.6927L76.8612 69.8307Z" fill="#5DB957"/>
<g opacity="0.3">
<path d="M76.8611 69.8308C77.4428 72.378 77.8753 76.2434 77.9648 82.0974C77.9648 84.0785 77.9648 86.0298 77.9648 87.9365C79.9708 90.1708 81.9619 92.3381 83.9306 94.431C84.2512 90.4911 84.3854 87.0651 84.3556 84.7116L84.2438 77.3457C84.2438 77.3457 91.0745 88.4429 90.6196 101.03C91.8575 102.182 93.1228 103.314 94.4153 104.426C94.4153 103.763 94.4825 103.145 94.4825 102.601C94.4825 97.7676 92.9314 84.9722 92.9314 84.9722C92.9314 84.9722 97.1298 87.9514 98.6361 103.592C98.7853 105.193 98.9344 106.727 99.0761 108.232C101.261 109.922 103.55 111.568 105.937 113.17C105.877 110.377 105.773 107.956 105.661 106.109C106.22 108.567 106.817 111.285 107.398 114.123C109.64 115.568 112.007 116.98 114.498 118.361V118.249C112.872 110.287 111.052 101.216 111.052 101.216C114.004 107.497 116.537 113.966 118.636 120.58C121.013 121.797 123.521 122.983 126.161 124.14C125.926 123.073 125.604 122.027 125.199 121.012C123.983 118.391 120.165 109.952 119.442 108.351L79.0461 71.6928L76.8611 69.8308Z" fill="black"/>
<path d="M72.4019 65.9951V66.0398L76.8762 69.8308C75.2281 62.7702 72.4019 65.9951 72.4019 65.9951Z" fill="black"/>
<path d="M119.442 108.343L119.509 108.403L119.315 108.075L119.442 108.343Z" fill="black"/>
<path d="M0 10.9557V12.6613C0.231173 13.853 0.447431 15.3425 0.611489 17.13L4.78751 20.9135C4.86208 17.9344 4.92919 15.5436 4.98139 14.0466L0 10.9557Z" fill="black"/>
<path d="M128.688 125.22C130.975 126.213 133.372 127.167 135.877 128.08C133.409 123.552 131.097 119.761 129.874 117.81L119.509 108.403C120.396 109.952 124.386 116.931 128.688 125.22Z" fill="black"/>
<path d="M24.9071 26.3951L15.9734 20.8539C18.1765 24.6397 19.6913 28.785 20.4477 33.0981C23.7885 35.5038 27.8527 38.5276 32.3046 42.0355C30.1569 35.6155 28.3374 30.8116 28.3374 30.8116L40.2241 42.1621C40.2241 42.1621 41.2458 44.6348 41.9244 50.0568C44.3927 52.1869 46.8983 54.4287 49.3816 56.7599C48.7615 53.2425 47.7432 49.8069 46.3465 46.5191C46.3465 46.5191 52.7298 54.5404 55.5188 62.7107C57.0774 64.2822 58.6285 65.8909 60.1423 67.522C59.5194 62.7832 58.628 58.0836 57.4726 53.4456C57.4726 53.4456 68.2482 64.9897 67.5622 65.9579C67.1371 66.5463 66.9059 67.6337 65.9738 74.1505L69.501 78.2021C69.583 77.8148 69.6651 77.4574 69.7471 77.2116C70.7986 73.7707 72.2676 66.6133 72.387 66.0398L36.8908 35.906L24.9071 26.3951ZM22.2523 25.0247C22.2523 25.0247 22.3194 25.2556 22.4313 25.6801L22.2523 25.0247Z" fill="black"/>
<path d="M14.2582 19.7963L7.88226 15.8415C8.93331 19.0132 9.63592 22.2897 9.97773 25.6131L11.3648 26.8717C11.3648 26.8717 12.9233 27.8698 15.5706 29.6945C15.1008 25.3226 14.5714 21.7402 14.2582 19.7963Z" fill="black"/>
<path d="M129.934 117.869C131.299 119.947 133.968 123.984 137.048 128.52L137.689 128.758C139.926 129.57 142.022 130.344 144.028 131.097L143.193 129.905L129.934 117.869Z" fill="black"/>
<path d="M129.874 117.81L129.934 117.869L128.972 116.38C128.972 116.38 129.308 116.931 129.874 117.81Z" fill="black"/>
</g>
<path d="M151.381 135.282C143.051 128.11 143.178 123.991 78.7031 69.5924C49.0086 44.5603 22.4387 22.8871 0 5.07941V9.81622C13.6988 20.6007 28.2702 32.4576 43.5201 45.4317C134.192 122.345 155.378 141.181 155.378 141.181C154.478 138.955 153.116 136.944 151.381 135.282Z" fill="#5DB957"/>
<g opacity="0.3">
<path d="M100.456 153.008C101.574 156.226 105.877 166.578 105.877 166.578C104.873 161.289 104.322 155.925 104.229 150.543C102.996 147.04 101.43 143.663 99.5534 140.458C99.2551 145.314 99.6279 150.61 100.456 153.008Z" fill="black"/>
<path d="M154.699 151.459C159.845 156.672 165.885 163.01 165.885 163.01C165.885 163.01 161.664 155.622 157.749 149.962C157.056 149.326 156.252 148.821 155.378 148.472C155.109 149.433 154.915 150.446 154.699 151.459Z" fill="black"/>
<path d="M39.0981 93.5C39.7618 99.1156 40.8878 104.873 41.283 110.481C40.4031 108.641 39.4113 106.377 38.2107 104.15C38.3523 115.054 39.9333 131.387 39.9333 131.387C39.9333 131.387 40.9474 108.783 42.5433 99.7115C42.6924 98.8624 42.8863 97.9836 43.0727 97.1047C42.1586 95.517 40.7683 94.2561 39.0981 93.5Z" fill="black"/>
<path d="M61.4696 135.997C62.2153 140.421 65.5561 150.081 65.5561 150.081C65.5561 150.081 62.8865 129.227 65.0192 113.244C65.31 111.099 65.586 108.947 65.847 106.817C65.1285 103.302 64.1158 99.8541 62.8193 96.5089C59.4711 120.923 60.7388 131.678 61.4696 135.997Z" fill="black"/>
<path d="M120.448 168.663C118.77 163.401 117.562 158 116.839 152.524C116.24 151.781 115.568 151.1 114.833 150.491C114.923 153.879 114.99 157.685 114.833 161.461C114.989 161.9 115.208 162.314 115.482 162.69C117.264 164.947 120.448 168.663 120.448 168.663Z" fill="black"/>
<path d="M14.2955 73.9122L14.1687 73.793C12.2522 76.1912 12.0509 79.58 11.514 82.641C11.1859 76.4593 11.6109 68.736 11.2231 61.2062C10.8652 75.0964 9.73171 82.5591 10.0747 85.8659C10.5893 90.6102 13.9301 103.681 13.9301 103.681C13.9301 103.681 13.505 88.5472 14.2955 73.9122Z" fill="black"/>
<path d="M151.105 165.885C152.596 167.181 153.596 167.911 153.596 167.911C153.596 167.911 152.895 166.287 151.798 163.725C151.582 164.448 151.381 165.17 151.105 165.885Z" fill="black"/>
<path d="M134.035 169.632C135.214 171.076 136.086 172 136.086 172C136.086 172 135.452 169.766 134.595 166.578C134.408 167.576 134.229 168.611 134.035 169.632Z" fill="black"/>
<path d="M4.5638 52.8795C4.38483 54.7862 4.22077 56.6779 3.8852 58.4579C2.83374 64.0512 0.13424 71.0522 0.596585 77.003C3.07983 84.2795 6.24913 91.8987 6.24913 91.8987C6.24913 91.8987 5.06344 73.078 4.60855 55.2628C4.59363 54.4882 4.57872 53.6988 4.5638 52.8795Z" fill="black"/>
<path d="M31.8497 122.144C32.0279 123.307 32.4037 124.43 32.9608 125.466C32.9608 125.466 32.4761 124.058 31.8497 122.144Z" fill="black"/>
<path d="M18.2031 100.404C18.7624 103.711 21.3202 113.81 21.3202 113.81C21.3202 113.81 22.2747 100.225 23.4455 87.5864C22.1238 84.7376 20.6296 81.9718 18.9712 79.3044C18.039 91.4444 17.8377 98.2368 18.2031 100.404Z" fill="black"/>
<path d="M32.2822 107.993C32.8116 105.014 33.5574 101.827 34.3031 98.5272C33.2835 97.4097 32.0515 96.5059 30.6789 95.8683C29.6722 104.508 28.6878 110.228 29.0831 112.462C29.8394 115.737 30.7704 118.969 31.872 122.144C31.3202 119.433 31.007 114.912 32.2822 107.993Z" fill="black"/>
<path d="M78.4944 124.021C77.7486 120.997 77.0029 117.095 76.1304 113.207C75.3101 120.446 74.5495 126.166 74.639 129.801C74.8329 137.725 78.8821 156.613 78.8821 156.613C78.8821 156.613 75.9142 136.109 78.4944 124.021Z" fill="black"/>
<path d="M85.2505 137.926C85.048 139.454 84.9782 140.997 85.0417 142.536C85.5115 148.703 91.4847 162.184 91.4847 162.184C91.4847 162.184 91.2088 158.035 91.082 152.129C88.9492 147.556 87.0477 142.752 85.2505 137.926Z" fill="black"/>
</g>
</svg>
