<svg width="14" height="14" viewBox="0 0 14 14" fill="none" xmlns="http://www.w3.org/2000/svg">
<path d="M12.8867 4.33993L8.52002 0.846597C7.66668 0.166598 6.33335 0.159931 5.48668 0.839931L1.12002 4.33993C0.493349 4.83993 0.113349 5.83993 0.246683 6.6266L1.08668 11.6533C1.28002 12.7799 2.32668 13.6666 3.46668 13.6666H10.5333C11.66 13.6666 12.7267 12.7599 12.92 11.6466L13.76 6.61993C13.88 5.83993 13.5 4.83993 12.8867 4.33993ZM7.50002 10.9999C7.50002 11.2733 7.27335 11.4999 7.00002 11.4999C6.72668 11.4999 6.50002 11.2733 6.50002 10.9999V8.99993C6.50002 8.7266 6.72668 8.49993 7.00002 8.49993C7.27335 8.49993 7.50002 8.7266 7.50002 8.99993V10.9999Z" fill="white"/>
</svg>
